<svg data-v-fde0c5aa="" xmlns="http://www.w3.org/2000/svg" viewBox="0 0 300 300" class="iconLeftSlogan">
  <!---->
  <defs data-v-fde0c5aa="">
    <!---->
  </defs>
  <rect data-v-fde0c5aa="" fill="#5B39CF" x="0" y="0" width="300px" height="300px" class="logo-background-square"></rect>
  <defs data-v-fde0c5aa="">
    <!---->
  </defs>
  <g data-v-fde0c5aa="" id="928375e0-6e9c-4035-a159-d4acfcb004e4" fill="#FFFFFF" transform="matrix(1.951869307714243,0,0,1.951869307714243,99.14644500658773,112.99588805331555)">
    <path d="M5.88 8.61L5.88 8.61L5.00 9.39L4.82 9.34L4.82 9.34Q4.42 7.78 3.11 7.78L3.11 7.78L3.11 7.78Q2.45 7.78 2.00 8.26L2.00 8.26L2.00 8.26Q1.55 8.74 1.55 9.43L1.55 9.43L1.55 9.43Q1.55 9.82 1.73 10.17L1.73 10.17L1.73 10.17Q1.90 10.51 2.23 10.78L2.23 10.78L2.23 10.78Q2.55 11.05 2.89 11.24L2.89 11.24L2.89 11.24Q3.23 11.44 3.70 11.64L3.70 11.64L3.70 11.64Q4.83 12.13 5.37 12.74L5.37 12.74L5.37 12.74Q5.92 13.34 5.92 14.16L5.92 14.16L5.92 14.16Q5.92 14.83 5.57 15.43L5.57 15.43L5.57 15.43Q5.22 16.02 4.67 16.43L4.67 16.43L4.67 16.43Q4.12 16.83 3.45 17.07L3.45 17.07L3.45 17.07Q2.77 17.30 2.10 17.30L2.10 17.30L2.10 17.30Q1.32 17.30 0.69 16.95L0.69 16.95L0.69 16.95Q0.06 16.60-0.21 15.87L-0.21 15.87L0.59 14.95L0.83 14.96L0.83 14.96Q1.34 16.66 2.69 16.66L2.69 16.66L2.69 16.66Q3.51 16.66 4.10 16.06L4.10 16.06L4.10 16.06Q4.69 15.47 4.69 14.59L4.69 14.59L4.69 14.59Q4.69 14.04 4.18 13.51L4.18 13.51L4.18 13.51Q3.68 12.99 2.99 12.69L2.99 12.69L2.99 12.69Q2.32 12.41 1.87 12.14L1.87 12.14L1.87 12.14Q1.42 11.88 1.08 11.55L1.08 11.55L1.08 11.55Q0.75 11.22 0.59 10.82L0.59 10.82L0.59 10.82Q0.43 10.42 0.43 9.92L0.43 9.92L0.43 9.92Q0.43 9.28 0.68 8.77L0.68 8.77L0.68 8.77Q0.93 8.25 1.35 7.93L1.35 7.93L1.35 7.93Q1.76 7.61 2.29 7.43L2.29 7.43L2.29 7.43Q2.82 7.26 3.40 7.26L3.40 7.26L3.40 7.26Q3.83 7.26 4.15 7.31L4.15 7.31L4.15 7.31Q4.46 7.36 4.79 7.49L4.79 7.49L4.79 7.49Q5.11 7.63 5.38 7.91L5.38 7.91L5.38 7.91Q5.65 8.18 5.88 8.61ZM11.92 17.23L11.79 17.14L11.79 17.14Q11.79 17.06 11.85 15.66L11.85 15.66L11.85 15.66Q11.92 14.26 11.92 13.32L11.92 13.32L11.92 13.32Q11.92 12.39 11.68 11.94L11.68 11.94L11.68 11.94Q11.43 11.49 10.77 11.49L10.77 11.49L10.77 11.49Q10.48 11.49 10.08 11.64L10.08 11.64L10.08 11.64Q9.68 11.79 9.47 11.90L9.47 11.90L9.47 11.90Q9.27 12.02 9.14 12.11L9.14 12.11L9.14 12.11Q9.06 13.95 9.06 15.14L9.06 15.14L9.06 15.14Q9.06 16.17 9.10 16.89L9.10 16.89L8.16 17.23L7.96 17.12L7.96 17.12Q7.97 16.54 8.02 15.25L8.02 15.25L8.02 15.25Q8.06 13.95 8.06 13.27L8.06 13.27L8.06 13.27Q8.06 12.15 7.97 11.81L7.97 11.81L7.97 11.81Q7.85 11.32 7.50 11.32L7.50 11.32L7.50 11.32Q7.16 11.32 6.45 11.73L6.45 11.73L6.28 11.46L6.28 11.46Q7.45 10.52 8.20 10.49L8.20 10.49L8.20 10.49Q9.06 10.49 9.06 11.53L9.06 11.53L9.18 11.61L9.18 11.61Q9.28 11.57 9.61 11.38L9.61 11.38L9.61 11.38Q9.95 11.18 10.11 11.10L10.11 11.10L10.11 11.10Q10.28 11.02 10.57 10.89L10.57 10.89L10.57 10.89Q10.86 10.77 11.10 10.72L11.10 10.72L11.10 10.72Q11.35 10.66 11.59 10.66L11.59 10.66L11.59 10.66Q11.98 10.66 12.31 10.86L12.31 10.86L12.31 10.86Q12.65 11.05 12.84 11.39L12.84 11.39L13.07 11.42L13.07 11.42Q13.99 10.94 14.49 10.79L14.49 10.79L14.49 10.79Q14.94 10.65 15.31 10.65L15.31 10.65L15.31 10.65Q16.04 10.65 16.42 11.03L16.42 11.03L16.42 11.03Q16.50 11.11 16.55 11.21L16.55 11.21L16.55 11.21Q16.60 11.31 16.64 11.47L16.64 11.47L16.64 11.47Q16.67 11.62 16.68 11.76L16.68 11.76L16.68 11.76Q16.70 11.89 16.70 12.13L16.70 12.13L16.70 12.13Q16.71 12.37 16.71 12.55L16.71 12.55L16.71 12.55Q16.71 12.73 16.70 13.06L16.70 13.06L16.70 13.06Q16.70 13.39 16.70 13.62L16.70 13.62L16.70 15.45L16.70 15.45Q16.70 16.37 17.41 16.37L17.41 16.37L17.41 16.37Q17.75 16.37 18.49 15.80L18.49 15.80L18.68 15.80L18.79 16.10L18.79 16.10Q18.38 16.47 18.09 16.69L18.09 16.69L18.09 16.69Q17.81 16.92 17.37 17.13L17.37 17.13L17.37 17.13Q16.93 17.34 16.54 17.34L16.54 17.34L16.54 17.34Q16.08 17.34 15.84 17.02L15.84 17.02L15.84 17.02Q15.59 16.70 15.59 16.26L15.59 16.26L15.59 16.26Q15.59 16.25 15.63 15.10L15.63 15.10L15.63 15.10Q15.66 13.95 15.66 13.32L15.66 13.32L15.66 13.32Q15.66 12.41 15.39 11.95L15.39 11.95L15.39 11.95Q15.12 11.49 14.47 11.49L14.47 11.49L14.47 11.49Q13.72 11.49 12.91 11.96L12.91 11.96L12.91 11.96Q12.88 13.25 12.88 13.90L12.88 13.90L12.88 13.90Q12.88 15.39 12.96 16.84L12.96 16.84L11.92 17.23ZM23.65 11.05L23.65 11.05L24.39 10.62L24.47 10.69L24.47 10.69Q24.38 12.36 24.38 13.75L24.38 13.75L24.38 13.75Q24.38 13.88 24.37 14.16L24.37 14.16L24.37 14.16Q24.36 14.44 24.35 14.65L24.35 14.65L24.35 14.65Q24.35 14.86 24.35 15.14L24.35 15.14L24.35 15.14Q24.36 15.42 24.39 15.61L24.39 15.61L24.39 15.61Q24.42 15.81 24.48 15.99L24.48 15.99L24.48 15.99Q24.54 16.17 24.65 16.27L24.65 16.27L24.65 16.27Q24.77 16.37 24.92 16.37L24.92 16.37L24.92 16.37Q25.16 16.37 25.83 16.11L25.83 16.11L25.94 16.45L25.94 16.45Q25.89 16.47 25.74 16.56L25.74 16.56L25.74 16.56Q25.59 16.65 25.54 16.69L25.54 16.69L25.54 16.69Q25.48 16.72 25.33 16.80L25.33 16.80L25.33 16.80Q25.19 16.88 25.12 16.93L25.12 16.93L25.12 16.93Q25.04 16.97 24.91 17.03L24.91 17.03L24.91 17.03Q24.79 17.10 24.70 17.13L24.70 17.13L24.70 17.13Q24.62 17.16 24.51 17.20L24.51 17.20L24.51 17.20Q24.41 17.23 24.33 17.25L24.33 17.25L24.33 17.25Q24.25 17.26 24.17 17.26L24.17 17.26L24.17 17.26Q23.81 17.26 23.63 17.05L23.63 17.05L23.63 17.05Q23.44 16.83 23.37 16.43L23.37 16.43L23.16 16.38L23.16 16.38Q21.83 17.26 20.88 17.26L20.88 17.26L20.88 17.26Q20.32 17.26 19.91 17.01L19.91 17.01L19.91 17.01Q19.49 16.76 19.26 16.34L19.26 16.34L19.26 16.34Q19.04 15.93 18.93 15.47L18.93 15.47L18.93 15.47Q18.82 15.00 18.82 14.50L18.82 14.50L18.82 14.50Q18.82 13.89 18.94 13.33L18.94 13.33L18.94 13.33Q19.05 12.77 19.31 12.26L19.31 12.26L19.31 12.26Q19.57 11.76 19.95 11.38L19.95 11.38L19.95 11.38Q20.33 11.01 20.90 10.79L20.90 10.79L20.90 10.79Q21.46 10.57 22.16 10.57L22.16 10.57L22.16 10.57Q22.51 10.57 22.92 10.69L22.92 10.69L22.92 10.69Q23.32 10.82 23.65 11.05ZM23.34 15.70L23.34 15.70L23.34 12.48L23.34 12.48Q23.34 12.24 23.34 12.11L23.34 12.11L23.34 12.11Q23.33 11.98 23.28 11.81L23.28 11.81L23.28 11.81Q23.22 11.63 23.12 11.52L23.12 11.52L23.12 11.52Q22.67 11.05 22.17 11.05L22.17 11.05L22.17 11.05Q21.39 11.05 20.84 11.59L20.84 11.59L20.84 11.59Q20.55 11.87 20.33 12.49L20.33 12.49L20.33 12.49Q20.10 13.12 20.08 14.08L20.08 14.08L20.08 14.08Q20.06 15.12 20.47 15.76L20.47 15.76L20.47 15.76Q20.84 16.33 21.86 16.33L21.86 16.33L21.86 16.33Q22.53 16.33 23.34 15.70ZM30.77 11.66L30.02 12.35L29.85 12.27L29.85 12.27Q29.78 11.93 29.61 11.70L29.61 11.70L29.61 11.70Q29.43 11.46 29.11 11.46L29.11 11.46L29.11 11.46Q28.72 11.46 28.44 11.72L28.44 11.72L28.44 11.72Q28.17 11.98 28.03 12.33L28.03 12.33L28.03 12.33Q27.94 12.54 27.91 12.91L27.91 12.91L27.91 12.91Q27.89 13.28 27.91 13.94L27.91 13.94L27.91 13.94Q27.93 14.59 27.93 14.71L27.93 14.71L27.93 14.71Q27.93 15.77 27.97 16.84L27.97 16.84L26.99 17.13L26.78 17.01L26.78 17.01Q26.95 15.05 26.95 13.69L26.95 13.69L26.95 13.69Q26.95 13.62 26.95 13.50L26.95 13.50L26.95 13.50Q26.95 13.23 26.95 13.10L26.95 13.10L26.95 13.10Q26.95 12.97 26.94 12.73L26.94 12.73L26.94 12.73Q26.93 12.48 26.92 12.35L26.92 12.35L26.92 12.35Q26.90 12.21 26.88 12.02L26.88 12.02L26.88 12.02Q26.85 11.83 26.80 11.73L26.80 11.73L26.80 11.73Q26.76 11.63 26.69 11.52L26.69 11.52L26.69 11.52Q26.63 11.41 26.54 11.36L26.54 11.36L26.54 11.36Q26.46 11.32 26.35 11.32L26.35 11.32L26.35 11.32Q26.02 11.32 25.25 11.76L25.25 11.76L25.09 11.52L25.09 11.52Q25.51 11.18 25.72 11.03L25.72 11.03L25.72 11.03Q25.94 10.87 26.32 10.67L26.32 10.67L26.32 10.67Q26.71 10.47 26.97 10.47L26.97 10.47L26.97 10.47Q27.84 10.47 27.99 11.48L27.99 11.48L28.12 11.53L28.12 11.53Q29.13 10.55 29.67 10.55L29.67 10.55L29.67 10.55Q30.67 10.55 30.77 11.66L30.77 11.66ZM31.73 8.94L31.73 8.94L32.91 8.54L33.00 8.61L33.00 8.61Q32.87 10.23 32.85 10.93L32.85 10.93L32.94 11.00L34.73 11.00L34.79 11.05L34.69 11.42L34.60 11.49L32.94 11.49L32.85 11.57L32.85 14.22L32.85 14.22Q32.85 14.65 32.89 14.97L32.89 14.97L32.89 14.97Q32.92 15.30 33.02 15.63L33.02 15.63L33.02 15.63Q33.11 15.96 33.32 16.14L33.32 16.14L33.32 16.14Q33.53 16.32 33.84 16.32L33.84 16.32L33.84 16.32Q34.22 16.32 35.12 15.74L35.12 15.74L35.29 15.77L35.38 15.98L35.38 15.98Q34.07 17.21 33.09 17.21L33.09 17.21L33.09 17.21Q32.41 17.21 32.08 16.78L32.08 16.78L32.08 16.78Q31.86 16.50 31.81 16.09L31.81 16.09L31.81 16.09Q31.76 15.67 31.76 14.25L31.76 14.25L31.76 11.59L31.68 11.49L30.11 11.49L30.04 11.42L30.13 11.08L30.22 11.00L31.68 11.00L31.76 10.92L31.76 10.92Q31.76 9.30 31.73 8.94ZM42.71 11.72L42.63 12.39L42.63 12.39Q41.54 12.30 40.97 12.30L40.97 12.30L40.97 12.30Q40.87 12.30 40.70 12.30L40.70 12.30L40.70 12.30Q40.53 12.30 40.42 12.30L40.42 12.30L40.42 12.30Q40.30 12.30 40.15 12.30L40.15 12.30L40.15 12.30Q39.99 12.30 39.88 12.31L39.88 12.31L39.88 12.31Q39.78 12.31 39.66 12.32L39.66 12.32L39.66 12.32Q39.53 12.33 39.45 12.34L39.45 12.34L39.45 12.34Q39.38 12.36 39.31 12.38L39.31 12.38L39.31 12.38Q39.24 12.40 39.20 12.43L39.20 12.43L39.20 12.43Q39.17 12.47 39.17 12.51L39.17 12.51L39.17 14.46L39.17 14.46Q39.17 15.65 39.38 16.02L39.38 16.02L39.38 16.02Q39.53 16.29 39.81 16.38L39.81 16.38L39.81 16.38Q40.08 16.47 40.72 16.47L40.72 16.47L40.72 16.47Q41.71 16.47 44.00 16.28L44.00 16.28L44.07 16.34L43.89 17.09L38.46 17.09L38.46 17.09Q38.09 16.88 38.09 16.17L38.09 16.17L38.09 9.28L38.09 9.28Q38.09 8.66 37.97 8.38L37.97 8.38L37.97 8.38Q37.83 8.07 36.90 7.94L36.90 7.94L36.89 7.66L36.99 7.55L39.06 7.54L39.06 7.54Q39.60 7.54 40.82 7.50L40.82 7.50L40.82 7.50Q42.04 7.46 42.44 7.46L42.44 7.46L42.44 7.46Q42.91 7.46 43.09 7.47L43.09 7.47L43.06 8.17L43.00 8.27L43.00 8.27Q40.48 8.13 40.08 8.13L40.08 8.13L39.52 8.13L39.52 8.13Q39.18 8.20 39.18 9.19L39.18 9.19L39.18 11.52L39.18 11.52Q39.18 11.56 39.20 11.59L39.20 11.59L39.20 11.59Q39.21 11.62 39.24 11.64L39.24 11.64L39.24 11.64Q39.27 11.66 39.31 11.68L39.31 11.68L39.31 11.68Q39.34 11.69 39.40 11.70L39.40 11.70L39.40 11.70Q39.46 11.71 39.50 11.71L39.50 11.71L39.50 11.71Q39.55 11.72 39.64 11.72L39.64 11.72L39.64 11.72Q39.72 11.72 39.78 11.72L39.78 11.72L39.78 11.72Q39.84 11.72 39.94 11.72L39.94 11.72L39.94 11.72Q40.04 11.72 40.11 11.72L40.11 11.72L40.11 11.72Q41.23 11.72 42.63 11.61L42.63 11.61L42.71 11.72ZM49.14 10.62L49.14 10.62L49.57 11.03L49.57 11.03Q49.62 11.07 49.62 11.08L49.62 11.08L49.62 11.08Q49.62 11.14 49.57 11.16L49.57 11.16L49.57 11.16Q48.47 11.93 47.16 13.47L47.16 13.47L47.16 13.47Q47.40 13.99 47.64 14.43L47.64 14.43L47.64 14.43Q47.88 14.88 48.15 15.30L48.15 15.30L48.15 15.30Q48.42 15.72 48.69 15.97L48.69 15.97L48.69 15.97Q48.96 16.21 49.18 16.21L49.18 16.21L49.18 16.21Q49.55 16.21 50.18 15.67L50.18 15.67L50.29 15.67L50.39 15.94L50.39 15.94Q50.17 16.18 50.07 16.29L50.07 16.29L50.07 16.29Q49.96 16.40 49.73 16.63L49.73 16.63L49.73 16.63Q49.49 16.85 49.34 16.96L49.34 16.96L49.34 16.96Q49.18 17.07 48.98 17.17L48.98 17.17L48.98 17.17Q48.77 17.26 48.60 17.26L48.60 17.26L48.60 17.26Q48.44 17.26 48.29 17.20L48.29 17.20L48.29 17.20Q48.15 17.13 47.98 16.96L47.98 16.96L47.98 16.96Q47.82 16.78 47.69 16.62L47.69 16.62L47.69 16.62Q47.57 16.46 47.38 16.11L47.38 16.11L47.38 16.11Q47.18 15.76 47.06 15.51L47.06 15.51L47.06 15.51Q46.93 15.27 46.67 14.77L46.67 14.77L46.67 14.77Q46.63 14.69 46.61 14.65L46.61 14.65L46.61 14.65Q46.59 14.61 46.55 14.54L46.55 14.54L46.55 14.54Q46.52 14.47 46.49 14.42L46.49 14.42L46.40 14.42L46.40 14.42Q46.01 15.00 45.82 15.31L45.82 15.31L45.82 15.31Q45.64 15.61 45.35 16.15L45.35 16.15L45.35 16.15Q45.06 16.70 44.86 17.20L44.86 17.20L44.65 17.26L44.25 16.91L44.25 16.80L44.25 16.80Q45.01 15.57 46.24 13.97L46.24 13.97L46.24 13.97Q45.62 12.71 45.40 12.36L45.40 12.36L45.40 12.36Q44.82 11.39 44.35 11.39L44.35 11.39L44.35 11.39Q43.98 11.39 43.46 11.74L43.46 11.74L43.26 11.49L43.26 11.49Q44.43 10.60 44.91 10.60L44.91 10.60L44.91 10.60Q45.42 10.60 45.66 10.86L45.66 10.86L45.66 10.86Q45.87 11.09 46.24 11.71L46.24 11.71L46.24 11.71Q46.61 12.33 46.94 12.97L46.94 12.97L47.02 12.99L47.02 12.99Q47.70 12.09 48.97 10.62L48.97 10.62L48.97 10.62Q48.99 10.60 49.05 10.60L49.05 10.60L49.05 10.60Q49.11 10.60 49.14 10.62ZM51.93 19.97L51.93 19.97L50.80 20.41L50.66 20.25L50.66 20.25Q50.74 19.28 50.74 15.77L50.74 15.77L50.74 12.68L50.74 12.68Q50.74 12.13 50.61 11.72L50.61 11.72L50.61 11.72Q50.48 11.32 50.20 11.32L50.20 11.32L50.20 11.32Q49.87 11.32 49.18 11.73L49.18 11.73L48.98 11.46L48.98 11.46Q50.17 10.51 50.89 10.51L50.89 10.51L50.89 10.51Q51.33 10.51 51.54 10.78L51.54 10.78L51.54 10.78Q51.75 11.06 51.80 11.56L51.80 11.56L51.91 11.61L51.91 11.61Q53.20 10.58 54.48 10.58L54.48 10.58L54.48 10.58Q54.89 10.58 55.23 10.73L55.23 10.73L55.23 10.73Q55.56 10.87 55.78 11.10L55.78 11.10L55.78 11.10Q55.99 11.33 56.14 11.65L56.14 11.65L56.14 11.65Q56.28 11.96 56.34 12.27L56.34 12.27L56.34 12.27Q56.40 12.59 56.40 12.92L56.40 12.92L56.40 12.92Q56.40 13.69 56.13 14.46L56.13 14.46L56.13 14.46Q55.86 15.24 55.40 15.86L55.40 15.86L55.40 15.86Q54.93 16.47 54.24 16.86L54.24 16.86L54.24 16.86Q53.55 17.25 52.76 17.25L52.76 17.25L52.76 17.25Q52.38 17.25 51.93 17.13L51.93 17.13L51.80 17.25L51.80 17.25Q51.84 19.12 51.93 19.97ZM51.82 16.08L51.82 16.17L51.82 16.17Q52.39 16.69 53.05 16.69L53.05 16.69L53.05 16.69Q53.55 16.69 53.93 16.51L53.93 16.51L53.93 16.51Q54.31 16.32 54.55 16.04L54.55 16.04L54.55 16.04Q54.79 15.75 54.95 15.36L54.95 15.36L54.95 15.36Q55.10 14.96 55.17 14.57L55.17 14.57L55.17 14.57Q55.23 14.17 55.23 13.75L55.23 13.75L55.23 13.75Q55.23 12.80 54.83 12.12L54.83 12.12L54.83 12.12Q54.43 11.45 53.79 11.45L53.79 11.45L53.79 11.45Q53.27 11.45 52.81 11.65L52.81 11.65L52.81 11.65Q52.36 11.85 51.84 12.26L51.84 12.26L51.84 12.26Q51.84 12.29 51.82 12.88L51.82 12.88L51.82 12.88Q51.80 13.47 51.80 13.56L51.80 13.56L51.80 13.56Q51.80 13.79 51.80 14.06L51.80 14.06L51.80 14.06Q51.80 14.33 51.80 14.58L51.80 14.58L51.80 14.58Q51.80 14.83 51.81 15.07L51.81 15.07L51.81 15.07Q51.81 15.31 51.81 15.50L51.81 15.50L51.81 15.50Q51.82 15.70 51.82 15.85L51.82 15.85L51.82 15.85Q51.82 16.00 51.82 16.08L51.82 16.08ZM59.13 11.55L59.13 11.55L59.13 11.55Q58.75 11.95 58.62 12.41L58.62 12.41L58.62 12.41Q58.49 12.87 58.49 13.45L58.49 13.45L58.49 13.45Q58.49 13.54 58.52 13.70L58.52 13.70L58.57 13.76L61.40 12.64L61.40 12.64Q61.58 12.58 61.58 12.27L61.58 12.27L61.58 12.27Q61.58 11.79 61.22 11.38L61.22 11.38L61.22 11.38Q60.86 10.96 60.31 10.96L60.31 10.96L60.31 10.96Q59.61 10.96 59.13 11.55ZM62.49 12.63L62.49 12.63L58.54 14.33L58.54 14.33Q58.58 14.69 58.69 15.02L58.69 15.02L58.69 15.02Q58.80 15.35 59.01 15.65L59.01 15.65L59.01 15.65Q59.21 15.95 59.56 16.13L59.56 16.13L59.56 16.13Q59.90 16.30 60.35 16.30L60.35 16.30L60.35 16.30Q61.28 16.30 62.50 15.35L62.50 15.35L62.66 15.38L62.84 15.63L62.84 15.63Q61.11 17.26 59.65 17.26L59.65 17.26L59.65 17.26Q59.11 17.26 58.69 17.06L58.69 17.06L58.69 17.06Q58.28 16.86 58.02 16.55L58.02 16.55L58.02 16.55Q57.77 16.23 57.61 15.78L57.61 15.78L57.61 15.78Q57.45 15.33 57.39 14.88L57.39 14.88L57.39 14.88Q57.33 14.44 57.33 13.92L57.33 13.92L57.33 13.92Q57.33 12.48 58.04 11.66L58.04 11.66L58.04 11.66Q58.55 11.05 59.27 10.73L59.27 10.73L59.27 10.73Q60.00 10.40 60.80 10.40L60.80 10.40L60.80 10.40Q61.69 10.40 62.23 10.95L62.23 10.95L62.23 10.95Q62.78 11.50 62.78 12.33L62.78 12.33L62.78 12.33Q62.78 12.41 62.73 12.47L62.73 12.47L62.73 12.47Q62.69 12.53 62.64 12.55L62.64 12.55L62.64 12.55Q62.60 12.58 62.49 12.63ZM65.43 16.84L65.43 16.84L64.44 17.17L64.24 17.08L64.24 17.08Q64.36 13.88 64.36 12.92L64.36 12.92L64.36 12.92Q64.36 12.10 64.26 11.70L64.26 11.70L64.26 11.70Q64.16 11.31 63.84 11.31L63.84 11.31L63.84 11.31Q63.70 11.31 63.52 11.38L63.52 11.38L63.52 11.38Q63.33 11.46 63.19 11.54L63.19 11.54L63.19 11.54Q63.05 11.63 62.79 11.80L62.79 11.80L62.56 11.49L62.56 11.49Q62.97 11.19 63.21 11.03L63.21 11.03L63.21 11.03Q63.44 10.86 63.82 10.68L63.82 10.68L63.82 10.68Q64.20 10.49 64.44 10.49L64.44 10.49L64.44 10.49Q64.93 10.49 65.16 10.75L65.16 10.75L65.16 10.75Q65.39 11.01 65.45 11.45L65.45 11.45L65.56 11.53L65.56 11.53Q66.32 11.07 66.96 10.80L66.96 10.80L66.96 10.80Q67.61 10.52 68.21 10.52L68.21 10.52L68.21 10.52Q68.93 10.52 69.29 10.93L69.29 10.93L69.29 10.93Q69.42 11.09 69.48 11.59L69.48 11.59L69.48 11.59Q69.55 12.09 69.56 12.48L69.56 12.48L69.56 12.48Q69.57 12.86 69.57 13.51L69.57 13.51L69.57 13.51Q69.57 15.17 69.58 15.34L69.58 15.34L69.58 15.34Q69.62 16.00 69.86 16.15L69.86 16.15L69.86 16.15Q69.99 16.25 70.24 16.25L70.24 16.25L70.24 16.25Q70.63 16.25 71.36 15.69L71.36 15.69L71.54 15.69L71.67 15.98L71.67 15.98Q71.13 16.51 70.54 16.87L70.54 16.87L70.54 16.87Q69.94 17.23 69.47 17.23L69.47 17.23L69.47 17.23Q68.46 17.23 68.46 16.00L68.46 16.00L68.53 13.60L68.53 13.60Q68.53 12.48 68.25 11.91L68.25 11.91L68.25 11.91Q67.98 11.35 67.27 11.35L67.27 11.35L67.27 11.35Q66.54 11.35 65.47 12.20L65.47 12.20L65.47 12.20Q65.38 14.38 65.38 15.46L65.38 15.46L65.38 15.46Q65.38 15.86 65.43 16.84ZM75.69 11.73L75.69 11.73L74.92 12.24L74.74 12.15L74.74 12.15Q74.67 11.05 73.83 11.05L73.83 11.05L73.83 11.05Q73.34 11.05 73.01 11.38L73.01 11.38L73.01 11.38Q72.69 11.70 72.69 12.19L72.69 12.19L72.69 12.19Q72.69 12.59 73.05 12.89L73.05 12.89L73.05 12.89Q73.42 13.19 74.23 13.54L74.23 13.54L74.23 13.54Q75.05 13.89 75.44 14.28L75.44 14.28L75.44 14.28Q75.84 14.67 75.84 15.16L75.84 15.16L75.84 15.16Q75.84 15.67 75.60 16.09L75.60 16.09L75.60 16.09Q75.37 16.52 74.98 16.78L74.98 16.78L74.98 16.78Q74.60 17.04 74.14 17.19L74.14 17.19L74.14 17.19Q73.68 17.33 73.21 17.33L73.21 17.33L73.21 17.33Q71.76 17.33 71.15 16.17L71.15 16.17L71.83 15.17L72.03 15.18L72.03 15.18Q72.07 15.85 72.52 16.32L72.52 16.32L72.52 16.32Q72.97 16.80 73.62 16.80L73.62 16.80L73.62 16.80Q74.07 16.80 74.45 16.47L74.45 16.47L74.45 16.47Q74.82 16.15 74.82 15.73L74.82 15.73L74.82 15.73Q74.82 15.48 74.70 15.26L74.70 15.26L74.70 15.26Q74.59 15.05 74.36 14.88L74.36 14.88L74.36 14.88Q74.14 14.71 73.93 14.60L73.93 14.60L73.93 14.60Q73.73 14.49 73.43 14.36L73.43 14.36L73.43 14.36Q73.06 14.21 72.78 14.05L72.78 14.05L72.78 14.05Q72.50 13.90 72.23 13.68L72.23 13.68L72.23 13.68Q71.97 13.46 71.83 13.18L71.83 13.18L71.83 13.18Q71.68 12.89 71.68 12.56L71.68 12.56L71.68 12.56Q71.68 11.96 72.05 11.49L72.05 11.49L72.05 11.49Q72.41 11.03 72.96 10.80L72.96 10.80L72.96 10.80Q73.51 10.57 74.10 10.57L74.10 10.57L74.10 10.57Q74.72 10.57 75.19 10.86L75.19 10.86L75.19 10.86Q75.66 11.14 75.69 11.73ZM78.70 11.55L78.70 11.55L78.70 11.55Q78.32 11.95 78.19 12.41L78.19 12.41L78.19 12.41Q78.05 12.87 78.05 13.45L78.05 13.45L78.05 13.45Q78.05 13.54 78.08 13.70L78.08 13.70L78.13 13.76L80.96 12.64L80.96 12.64Q81.14 12.58 81.14 12.27L81.14 12.27L81.14 12.27Q81.14 11.79 80.78 11.38L80.78 11.38L80.78 11.38Q80.42 10.96 79.87 10.96L79.87 10.96L79.87 10.96Q79.17 10.96 78.70 11.55ZM82.05 12.63L82.05 12.63L78.11 14.33L78.11 14.33Q78.14 14.69 78.25 15.02L78.25 15.02L78.25 15.02Q78.37 15.35 78.57 15.65L78.57 15.65L78.57 15.65Q78.78 15.95 79.12 16.13L79.12 16.13L79.12 16.13Q79.47 16.30 79.91 16.30L79.91 16.30L79.91 16.30Q80.85 16.30 82.07 15.35L82.07 15.35L82.22 15.38L82.41 15.63L82.41 15.63Q80.67 17.26 79.21 17.26L79.21 17.26L79.21 17.26Q78.67 17.26 78.26 17.06L78.26 17.06L78.26 17.06Q77.84 16.86 77.59 16.55L77.59 16.55L77.59 16.55Q77.33 16.23 77.17 15.78L77.17 15.78L77.17 15.78Q77.01 15.33 76.95 14.88L76.95 14.88L76.95 14.88Q76.89 14.44 76.89 13.92L76.89 13.92L76.89 13.92Q76.89 12.48 77.60 11.66L77.60 11.66L77.60 11.66Q78.11 11.05 78.84 10.73L78.84 10.73L78.84 10.73Q79.56 10.40 80.36 10.40L80.36 10.40L80.36 10.40Q81.25 10.40 81.80 10.95L81.80 10.95L81.80 10.95Q82.35 11.50 82.35 12.33L82.35 12.33L82.35 12.33Q82.35 12.41 82.30 12.47L82.30 12.47L82.30 12.47Q82.25 12.53 82.21 12.55L82.21 12.55L82.21 12.55Q82.16 12.58 82.05 12.63Z"></path>
  </g>
  <defs data-v-fde0c5aa="">
    <!---->
  </defs>
  <g data-v-fde0c5aa="" id="dfe7d049-8248-49e8-aef5-31235280e531" stroke="none" fill="#FFFFFF" transform="matrix(0.48765166465696896,0,0,0.48765166465696896,39.29827058649295,125.64887337889338)">
    <path d="M60.258 27.237c-7.356 0-13.322 4.899-13.322 10.942 0 6.042 5.966 10.941 13.322 10.941 7.357 0 13.321-4.9 13.321-10.941 0-6.043-5.964-10.942-13.321-10.942zm8.36 12.126c-.055 1.604-.438 2.698-.846 3.549l-2.892-.729c.31-.609.897-1.75.897-3.501 0-1.581-.745-2.091-1.46-2.091-.817 0-1.382.851-2.175 2.942-1.075 2.893-2.481 4.035-4.81 4.035-2.276 0-4.222-1.507-4.708-4.302h-2.638V36.86h2.432c.075-1.628.563-3.208 1.1-4.132l2.996.729c-.59 1.021-1.128 2.455-1.128 4.037 0 1.41.59 2.357 1.587 2.357.971 0 1.588-.778 2.227-2.603.925-2.601 2.2-4.375 4.683-4.375 2.278 0 4.042 1.507 4.556 4.108h2.429v2.381h-2.25zM94.99 21.184a5.125 5.125 0 0 0-4.915-3.614 5.11 5.11 0 0 0-1.537.236l-6.971 2.18v10.789l10.046-3.139a5.117 5.117 0 0 0 3.027-2.526 5.117 5.117 0 0 0 .35-3.926zM86.058 36.216h-4.49v10.301h4.49a5.156 5.156 0 0 0 5.151-5.15 5.157 5.157 0 0 0-5.151-5.151zM81.567 50.457v8.079h4.49c2.841 0 5.151-2.311 5.151-5.15s-2.311-5.151-5.151-5.151h-4.49v2.222zM85.934 60.253h-4.366v10.3h4.366a5.156 5.156 0 0 0 5.151-5.149 5.156 5.156 0 0 0-5.151-5.151zM74.096.049H36.051v.004h-.701v32.97l2.389-1.096V2.439h36.357z"></path>
    <path d="M48.379 26.894H46.07v-16.16h10.968v2.309h-8.659v13.851zM74.351 26.894h-2.309V13.043h-8.656v-2.309h10.965v16.16zM74.351 75.095H63.386v-2.309h8.656v-9.423h2.309v11.732z"></path>
    <path d="M66.271 19.807h-13.85v-2.308h13.85v2.308zM66.271 69.873H51.266v-2.309h15.005v2.309z"></path>
    <g>
      <path d="M79.482 6.595V5.244H41.438v.004h-.701v44.273h2.39V7.633h33.971v70.319H49.485C48.282 85.31 41.23 90.274 40.99 90.43a1.468 1.468 0 0 1-2.034-.436 1.47 1.47 0 0 1 .438-2.035c.053-.034 5.594-3.718 7.222-9.926.264-1.004.461-1.987.617-2.938h9.806v-2.309h-9.507c.396-4.167-.05-7.219-.055-7.261a1.487 1.487 0 0 1-.002-.365H64.23c3.434 0 6.867-2.067 6.867-6.131s-3.023-6.623-6.867-6.623H37.544v-7.253h-.034l-.008-9.912c-3.59 1.56-6.094 2.665-6.631 2.939-4.332 2.207-7.603 7.276-8.339 9.32-.899 2.042-21.093 52.322-21.093 52.322h41.858s10.14-4.251 15.534-10.138c1.81-1.976 4.263-6.014 5.649-9.352l15.001.018.004-73.756h-.003z"></path>
    </g>
  </g>
  <defs data-v-fde0c5aa="">
    <!---->
  </defs>
  <g data-v-fde0c5aa="" id="03cd6407-85a6-4a5b-8d3f-a6a34ec3225d" fill="#FFFFFF" transform="matrix(0.34006758708203305,0,0,0.34006758708203305,98.60732674407566,160.90195648968214)">
    <path d="M3.70 15.68L3.70 12.24L3.44 12.24L0.38 5.88L1.69 5.88L4.20 11.23L4.37 11.23L6.87 5.88L8.19 5.88L5.12 12.24L4.87 12.24L4.87 15.68L3.70 15.68ZM16.41 11.87L16.41 9.69L16.41 9.69Q16.41 7.78 17.32 6.73L17.32 6.73L17.32 6.73Q18.23 5.68 19.85 5.68L19.85 5.68L19.85 5.68Q21.48 5.68 22.39 6.73L22.39 6.73L22.39 6.73Q23.30 7.78 23.30 9.69L23.30 9.69L23.30 11.87L23.30 11.87Q23.30 13.83 22.39 14.85L22.39 14.85L22.39 14.85Q21.48 15.88 19.85 15.88L19.85 15.88L19.85 15.88Q18.23 15.88 17.32 14.85L17.32 14.85L17.32 14.85Q16.41 13.83 16.41 11.87L16.41 11.87ZM19.85 14.78L19.85 14.78L19.85 14.78Q20.99 14.78 21.55 14.01L21.55 14.01L21.55 14.01Q22.12 13.23 22.12 11.79L22.12 11.79L22.12 9.77L22.12 9.77Q22.12 8.43 21.55 7.60L21.55 7.60L21.55 7.60Q20.99 6.78 19.85 6.78L19.85 6.78L19.85 6.78Q18.72 6.78 18.15 7.60L18.15 7.60L18.15 7.60Q17.58 8.43 17.58 9.77L17.58 9.77L17.58 11.79L17.58 11.79Q17.58 13.23 18.15 14.01L18.15 14.01L18.15 14.01Q18.72 14.78 19.85 14.78ZM32.06 5.88L33.24 5.88L33.24 12.38L33.24 12.38Q33.24 13.57 33.79 14.17L33.79 14.17L33.79 14.17Q34.34 14.78 35.42 14.78L35.42 14.78L35.42 14.78Q36.50 14.78 37.05 14.17L37.05 14.17L37.05 14.17Q37.60 13.57 37.60 12.38L37.60 12.38L37.60 5.88L38.78 5.88L38.78 12.38L38.78 12.38Q38.78 14.08 37.88 14.98L37.88 14.98L37.88 14.98Q36.99 15.88 35.42 15.88L35.42 15.88L35.42 15.88Q33.85 15.88 32.96 14.98L32.96 14.98L32.96 14.98Q32.06 14.08 32.06 12.38L32.06 12.38L32.06 5.88ZM54.05 12.15L54.05 15.68L52.88 15.68L52.88 12.40L52.88 12.40Q52.88 12.04 52.71 11.84L52.71 11.84L52.71 11.84Q52.54 11.65 52.12 11.65L52.12 11.65L49.07 11.65L49.07 15.68L47.89 15.68L47.89 5.88L51.39 5.88L51.39 5.88Q52.15 5.88 52.71 6.10L52.71 6.10L52.71 6.10Q53.27 6.31 53.64 6.68L53.64 6.68L53.64 6.68Q54.01 7.04 54.20 7.53L54.20 7.53L54.20 7.53Q54.39 8.01 54.39 8.54L54.39 8.54L54.39 8.96L54.39 8.96Q54.39 9.51 54.09 10.05L54.09 10.05L54.09 10.05Q53.79 10.60 53.16 10.89L53.16 10.89L53.16 11.06L53.16 11.06Q53.58 11.13 53.82 11.40L53.82 11.40L53.82 11.40Q54.05 11.66 54.05 12.15L54.05 12.15ZM49.07 6.97L49.07 10.56L51.25 10.56L51.25 10.56Q52.25 10.56 52.73 10.13L52.73 10.13L52.73 10.13Q53.21 9.70 53.21 8.88L53.21 8.88L53.21 8.62L53.21 8.62Q53.21 7.88 52.73 7.43L52.73 7.43L52.73 7.43Q52.25 6.97 51.25 6.97L51.25 6.97L49.07 6.97ZM86.25 5.88L85.26 15.68L83.12 15.68L82.21 6.38L82.04 6.38L81.13 15.68L78.99 15.68L77.99 5.88L79.06 5.88L80.00 15.18L80.16 15.18L81.05 5.88L83.20 5.88L84.08 15.18L84.25 15.18L85.19 5.88L86.25 5.88ZM100.51 15.68L99.79 13.24L95.59 13.24L94.88 15.68L93.62 15.68L96.59 5.88L98.80 5.88L101.77 15.68L100.51 15.68ZM97.78 6.38L97.61 6.38L95.91 12.15L99.47 12.15L97.78 6.38ZM110.19 15.68L110.19 5.88L111.37 5.88L111.37 14.59L116.49 14.59L116.49 15.68L110.19 15.68ZM125.76 15.68L125.76 5.88L126.94 5.88L126.94 14.59L132.06 14.59L132.06 15.68L125.76 15.68ZM141.43 15.68L141.43 5.88L147.36 5.88L147.36 6.97L142.60 6.97L142.60 10.22L147.28 10.22L147.28 11.31L142.60 11.31L142.60 14.59L147.45 14.59L147.45 15.68L141.43 15.68ZM156.52 6.97L156.52 5.88L163.41 5.88L163.41 6.97L160.55 6.97L160.55 15.68L159.38 15.68L159.38 6.97L156.52 6.97ZM174.55 6.66L174.55 6.66L174.55 6.66Q174.55 6.26 174.84 5.97L174.84 5.97L174.84 5.97Q175.13 5.68 175.53 5.68L175.53 5.68L175.53 5.68Q175.94 5.68 176.23 5.97L176.23 5.97L176.23 5.97Q176.51 6.26 176.51 6.66L176.51 6.66L176.51 6.66Q176.51 6.97 176.34 7.22L176.34 7.22L176.34 7.22Q176.18 7.46 175.91 7.57L175.91 7.57L175.91 9.13L175.15 9.13L175.15 7.57L175.15 7.57Q174.89 7.46 174.72 7.22L174.72 7.22L174.72 7.22Q174.55 6.97 174.55 6.66ZM193.41 9.21L193.41 8.71L193.41 8.71Q193.41 8.23 193.22 7.87L193.22 7.87L193.22 7.87Q193.03 7.50 192.71 7.27L192.71 7.27L192.71 7.27Q192.39 7.03 191.97 6.90L191.97 6.90L191.97 6.90Q191.55 6.78 191.09 6.78L191.09 6.78L191.09 6.78Q190.68 6.78 190.32 6.88L190.32 6.88L190.32 6.88Q189.95 6.99 189.67 7.18L189.67 7.18L189.67 7.18Q189.38 7.38 189.21 7.66L189.21 7.66L189.21 7.66Q189.04 7.95 189.04 8.33L189.04 8.33L189.04 8.41L189.04 8.41Q189.04 8.82 189.21 9.11L189.21 9.11L189.21 9.11Q189.38 9.39 189.71 9.60L189.71 9.60L189.71 9.60Q190.04 9.80 190.53 9.93L190.53 9.93L190.53 9.93Q191.02 10.07 191.67 10.16L191.67 10.16L191.67 10.16Q193.21 10.40 193.94 11.07L193.94 11.07L193.94 11.07Q194.67 11.73 194.67 12.85L194.67 12.85L194.67 13.02L194.67 13.02Q194.67 13.65 194.45 14.17L194.45 14.17L194.45 14.17Q194.24 14.70 193.81 15.08L193.81 15.08L193.81 15.08Q193.38 15.46 192.75 15.67L192.75 15.67L192.75 15.67Q192.12 15.88 191.30 15.88L191.30 15.88L191.30 15.88Q190.36 15.88 189.64 15.60L189.64 15.60L189.64 15.60Q188.92 15.33 188.43 14.85L188.43 14.85L188.43 14.85Q187.95 14.36 187.70 13.71L187.70 13.71L187.70 13.71Q187.45 13.06 187.45 12.29L187.45 12.29L187.45 11.87L188.62 11.87L188.62 12.21L188.62 12.21Q188.62 13.50 189.33 14.14L189.33 14.14L189.33 14.14Q190.04 14.78 191.30 14.78L191.30 14.78L191.30 14.78Q192.39 14.78 192.94 14.30L192.94 14.30L192.94 14.30Q193.49 13.82 193.49 13.02L193.49 13.02L193.49 12.94L193.49 12.94Q193.49 12.17 192.93 11.76L192.93 11.76L192.93 11.76Q192.36 11.35 191.09 11.17L191.09 11.17L191.09 11.17Q190.34 11.07 189.75 10.87L189.75 10.87L189.75 10.87Q189.15 10.67 188.73 10.34L188.73 10.34L188.73 10.34Q188.31 10.01 188.09 9.55L188.09 9.55L188.09 9.55Q187.87 9.09 187.87 8.46L187.87 8.46L187.87 8.29L187.87 8.29Q187.87 7.71 188.10 7.24L188.10 7.24L188.10 7.24Q188.34 6.76 188.77 6.41L188.77 6.41L188.77 6.41Q189.20 6.06 189.79 5.87L189.79 5.87L189.79 5.87Q190.39 5.68 191.10 5.68L191.10 5.68L191.10 5.68Q191.93 5.68 192.58 5.92L192.58 5.92L192.58 5.92Q193.23 6.16 193.68 6.56L193.68 6.56L193.68 6.56Q194.12 6.96 194.36 7.50L194.36 7.50L194.36 7.50Q194.59 8.04 194.59 8.62L194.59 8.62L194.59 9.21L193.41 9.21ZM218.79 6.97L218.79 5.88L225.68 5.88L225.68 6.97L222.82 6.97L222.82 15.68L221.65 15.68L221.65 6.97L218.79 6.97ZM240.87 12.15L240.87 15.68L239.69 15.68L239.69 12.40L239.69 12.40Q239.69 12.04 239.53 11.84L239.53 11.84L239.53 11.84Q239.36 11.65 238.94 11.65L238.94 11.65L235.89 11.65L235.89 15.68L234.71 15.68L234.71 5.88L238.21 5.88L238.21 5.88Q238.97 5.88 239.53 6.10L239.53 6.10L239.53 6.10Q240.09 6.31 240.46 6.68L240.46 6.68L240.46 6.68Q240.83 7.04 241.02 7.53L241.02 7.53L241.02 7.53Q241.21 8.01 241.21 8.54L241.21 8.54L241.21 8.96L241.21 8.96Q241.21 9.51 240.91 10.05L240.91 10.05L240.91 10.05Q240.60 10.60 239.97 10.89L239.97 10.89L239.97 11.06L239.97 11.06Q240.39 11.13 240.63 11.40L240.63 11.40L240.63 11.40Q240.87 11.66 240.87 12.15L240.87 12.15ZM235.89 6.97L235.89 10.56L238.07 10.56L238.07 10.56Q239.06 10.56 239.55 10.13L239.55 10.13L239.55 10.13Q240.03 9.70 240.03 8.88L240.03 8.88L240.03 8.62L240.03 8.62Q240.03 7.88 239.55 7.43L239.55 7.43L239.55 7.43Q239.06 6.97 238.07 6.97L238.07 6.97L235.89 6.97ZM250.01 5.88L251.19 5.88L251.19 12.38L251.19 12.38Q251.19 13.57 251.74 14.17L251.74 14.17L251.74 14.17Q252.29 14.78 253.37 14.78L253.37 14.78L253.37 14.78Q254.45 14.78 255.00 14.17L255.00 14.17L255.00 14.17Q255.56 13.57 255.56 12.38L255.56 12.38L255.56 5.88L256.73 5.88L256.73 12.38L256.73 12.38Q256.73 14.08 255.84 14.98L255.84 14.98L255.84 14.98Q254.94 15.88 253.37 15.88L253.37 15.88L253.37 15.88Q251.80 15.88 250.91 14.98L250.91 14.98L250.91 14.98Q250.01 14.08 250.01 12.38L250.01 12.38L250.01 5.88ZM271.25 9.21L271.25 8.71L271.25 8.71Q271.25 8.23 271.06 7.87L271.06 7.87L271.06 7.87Q270.87 7.50 270.55 7.27L270.55 7.27L270.55 7.27Q270.23 7.03 269.81 6.90L269.81 6.90L269.81 6.90Q269.39 6.78 268.93 6.78L268.93 6.78L268.93 6.78Q268.52 6.78 268.16 6.88L268.16 6.88L268.16 6.88Q267.79 6.99 267.51 7.18L267.51 7.18L267.51 7.18Q267.22 7.38 267.05 7.66L267.05 7.66L267.05 7.66Q266.88 7.95 266.88 8.33L266.88 8.33L266.88 8.41L266.88 8.41Q266.88 8.82 267.05 9.11L267.05 9.11L267.05 9.11Q267.22 9.39 267.55 9.60L267.55 9.60L267.55 9.60Q267.88 9.80 268.37 9.93L268.37 9.93L268.37 9.93Q268.86 10.07 269.51 10.16L269.51 10.16L269.51 10.16Q271.05 10.40 271.78 11.07L271.78 11.07L271.78 11.07Q272.51 11.73 272.51 12.85L272.51 12.85L272.51 13.02L272.51 13.02Q272.51 13.65 272.29 14.17L272.29 14.17L272.29 14.17Q272.08 14.70 271.65 15.08L271.65 15.08L271.65 15.08Q271.22 15.46 270.59 15.67L270.59 15.67L270.59 15.67Q269.96 15.88 269.14 15.88L269.14 15.88L269.14 15.88Q268.20 15.88 267.48 15.60L267.48 15.60L267.48 15.60Q266.76 15.33 266.27 14.85L266.27 14.85L266.27 14.85Q265.79 14.36 265.54 13.71L265.54 13.71L265.54 13.71Q265.29 13.06 265.29 12.29L265.29 12.29L265.29 11.87L266.46 11.87L266.46 12.21L266.46 12.21Q266.46 13.50 267.17 14.14L267.17 14.14L267.17 14.14Q267.88 14.78 269.14 14.78L269.14 14.78L269.14 14.78Q270.23 14.78 270.78 14.30L270.78 14.30L270.78 14.30Q271.33 13.82 271.33 13.02L271.33 13.02L271.33 12.94L271.33 12.94Q271.33 12.17 270.77 11.76L270.77 11.76L270.77 11.76Q270.20 11.35 268.93 11.17L268.93 11.17L268.93 11.17Q268.18 11.07 267.59 10.87L267.59 10.87L267.59 10.87Q266.99 10.67 266.57 10.34L266.57 10.34L266.57 10.34Q266.15 10.01 265.93 9.55L265.93 9.55L265.93 9.55Q265.71 9.09 265.71 8.46L265.71 8.46L265.71 8.29L265.71 8.29Q265.71 7.71 265.94 7.24L265.94 7.24L265.94 7.24Q266.18 6.76 266.61 6.41L266.61 6.41L266.61 6.41Q267.04 6.06 267.63 5.87L267.63 5.87L267.63 5.87Q268.23 5.68 268.94 5.68L268.94 5.68L268.94 5.68Q269.77 5.68 270.42 5.92L270.42 5.92L270.42 5.92Q271.07 6.16 271.52 6.56L271.52 6.56L271.52 6.56Q271.96 6.96 272.20 7.50L272.20 7.50L272.20 7.50Q272.43 8.04 272.43 8.62L272.43 8.62L272.43 9.21L271.25 9.21ZM281.06 6.97L281.06 5.88L287.95 5.88L287.95 6.97L285.10 6.97L285.10 15.68L283.92 15.68L283.92 6.97L281.06 6.97ZM297.11 15.68L297.11 5.88L303.04 5.88L303.04 6.97L298.28 6.97L298.28 10.22L302.96 10.22L302.96 11.31L298.28 11.31L298.28 14.59L303.13 14.59L303.13 15.68L297.11 15.68ZM312.38 6.97L312.38 5.88L315.60 5.88L315.60 5.88Q317.42 5.88 318.26 6.75L318.26 6.75L318.26 6.75Q319.10 7.62 319.10 9.52L319.10 9.52L319.10 12.04L319.10 12.04Q319.10 13.94 318.26 14.81L318.26 14.81L318.26 14.81Q317.42 15.68 315.60 15.68L315.60 15.68L312.38 15.68L312.38 14.57L313.22 14.57L313.22 6.97L312.38 6.97ZM314.40 14.59L315.43 14.59L315.43 14.59Q316.08 14.59 316.55 14.46L316.55 14.46L316.55 14.46Q317.02 14.34 317.32 14.04L317.32 14.04L317.32 14.04Q317.63 13.73 317.78 13.23L317.78 13.23L317.78 13.23Q317.93 12.73 317.93 11.96L317.93 11.96L317.93 9.60L317.93 9.60Q317.93 8.83 317.78 8.33L317.78 8.33L317.78 8.33Q317.63 7.83 317.32 7.53L317.32 7.53L317.32 7.53Q317.02 7.22 316.55 7.10L316.55 7.10L316.55 7.10Q316.08 6.97 315.43 6.97L315.43 6.97L314.40 6.97L314.40 14.59ZM346.84 14.78L346.84 14.78L346.84 14.78Q347.44 14.78 347.87 14.58L347.87 14.58L347.87 14.58Q348.29 14.38 348.56 14.04L348.56 14.04L348.56 14.04Q348.84 13.69 348.97 13.25L348.97 13.25L348.97 13.25Q349.10 12.81 349.10 12.32L349.10 12.32L349.10 12.15L350.28 12.15L350.28 12.32L350.28 12.32Q350.28 13.06 350.06 13.71L350.06 13.71L350.06 13.71Q349.83 14.36 349.40 14.85L349.40 14.85L349.40 14.85Q348.96 15.33 348.32 15.60L348.32 15.60L348.32 15.60Q347.68 15.88 346.84 15.88L346.84 15.88L346.84 15.88Q345.21 15.88 344.30 14.85L344.30 14.85L344.30 14.85Q343.39 13.83 343.39 11.87L343.39 11.87L343.39 9.69L343.39 9.69Q343.39 7.78 344.30 6.73L344.30 6.73L344.30 6.73Q345.21 5.68 346.84 5.68L346.84 5.68L346.84 5.68Q347.68 5.68 348.32 5.96L348.32 5.96L348.32 5.96Q348.96 6.23 349.40 6.71L349.40 6.71L349.40 6.71Q349.83 7.20 350.06 7.85L350.06 7.85L350.06 7.85Q350.28 8.50 350.28 9.24L350.28 9.24L350.28 9.41L349.10 9.41L349.10 9.24L349.10 9.24Q349.09 8.76 348.96 8.32L348.96 8.32L348.96 8.32Q348.82 7.87 348.55 7.53L348.55 7.53L348.55 7.53Q348.28 7.18 347.86 6.98L347.86 6.98L347.86 6.98Q347.44 6.78 346.84 6.78L346.84 6.78L346.84 6.78Q345.70 6.78 345.13 7.60L345.13 7.60L345.13 7.60Q344.57 8.43 344.57 9.77L344.57 9.77L344.57 11.79L344.57 11.79Q344.57 13.23 345.13 14.01L345.13 14.01L345.13 14.01Q345.70 14.78 346.84 14.78ZM358.90 11.87L358.90 9.69L358.90 9.69Q358.90 7.78 359.81 6.73L359.81 6.73L359.81 6.73Q360.72 5.68 362.35 5.68L362.35 5.68L362.35 5.68Q363.97 5.68 364.88 6.73L364.88 6.73L364.88 6.73Q365.79 7.78 365.79 9.69L365.79 9.69L365.79 11.87L365.79 11.87Q365.79 13.83 364.88 14.85L364.88 14.85L364.88 14.85Q363.97 15.88 362.35 15.88L362.35 15.88L362.35 15.88Q360.72 15.88 359.81 14.85L359.81 14.85L359.81 14.85Q358.90 13.83 358.90 11.87L358.90 11.87ZM362.35 14.78L362.35 14.78L362.35 14.78Q363.48 14.78 364.05 14.01L364.05 14.01L364.05 14.01Q364.62 13.23 364.62 11.79L364.62 11.79L364.62 9.77L364.62 9.77Q364.62 8.43 364.05 7.60L364.05 7.60L364.05 7.60Q363.48 6.78 362.35 6.78L362.35 6.78L362.35 6.78Q361.21 6.78 360.65 7.60L360.65 7.60L360.65 7.60Q360.08 8.43 360.08 9.77L360.08 9.77L360.08 11.79L360.08 11.79Q360.08 13.23 360.65 14.01L360.65 14.01L360.65 14.01Q361.21 14.78 362.35 14.78ZM374.28 15.68L374.28 5.88L376.52 5.88L377.83 15.18L378.00 15.18L379.32 5.88L381.56 5.88L381.56 15.68L380.46 15.68L380.46 6.38L380.30 6.38L378.98 15.68L376.85 15.68L375.54 6.38L375.37 6.38L375.37 15.68L374.28 15.68ZM393.89 11.65L391.57 11.65L391.57 15.68L390.39 15.68L390.39 5.88L393.89 5.88L393.89 5.88Q394.65 5.88 395.21 6.10L395.21 6.10L395.21 6.10Q395.77 6.31 396.14 6.68L396.14 6.68L396.14 6.68Q396.51 7.04 396.70 7.53L396.70 7.53L396.70 7.53Q396.89 8.01 396.89 8.54L396.89 8.54L396.89 8.96L396.89 8.96Q396.89 9.49 396.70 9.98L396.70 9.98L396.70 9.98Q396.51 10.47 396.13 10.84L396.13 10.84L396.13 10.84Q395.75 11.21 395.19 11.43L395.19 11.43L395.19 11.43Q394.63 11.65 393.89 11.65L393.89 11.65ZM391.57 6.97L391.57 10.56L393.75 10.56L393.75 10.56Q395.71 10.56 395.71 8.88L395.71 8.88L395.71 8.62L395.71 8.62Q395.71 7.88 395.23 7.43L395.23 7.43L395.23 7.43Q394.74 6.97 393.75 6.97L393.75 6.97L391.57 6.97ZM411.87 15.68L411.15 13.24L406.95 13.24L406.24 15.68L404.98 15.68L407.95 5.88L410.16 5.88L413.13 15.68L411.87 15.68ZM409.14 6.38L408.97 6.38L407.27 12.15L410.83 12.15L409.14 6.38ZM423.71 5.88L426.54 15.18L426.71 15.18L426.71 5.88L427.88 5.88L427.88 15.68L425.53 15.68L422.70 6.38L422.53 6.38L422.53 15.68L421.36 15.68L421.36 5.88L423.71 5.88ZM437.08 6.97L437.08 5.88L443.30 5.88L443.30 6.97L440.78 6.97L440.78 14.59L443.30 14.59L443.30 15.68L437.08 15.68L437.08 14.59L439.60 14.59L439.60 6.97L437.08 6.97ZM452.31 11.87L452.31 9.69L452.31 9.69Q452.31 7.78 453.22 6.73L453.22 6.73L453.22 6.73Q454.13 5.68 455.76 5.68L455.76 5.68L455.76 5.68Q457.38 5.68 458.29 6.73L458.29 6.73L458.29 6.73Q459.20 7.78 459.20 9.69L459.20 9.69L459.20 11.87L459.20 11.87Q459.20 13.83 458.29 14.85L458.29 14.85L458.29 14.85Q457.38 15.88 455.76 15.88L455.76 15.88L455.76 15.88Q454.13 15.88 453.22 14.85L453.22 14.85L453.22 14.85Q452.31 13.83 452.31 11.87L452.31 11.87ZM455.76 14.78L455.76 14.78L455.76 14.78Q456.89 14.78 457.46 14.01L457.46 14.01L457.46 14.01Q458.02 13.23 458.02 11.79L458.02 11.79L458.02 9.77L458.02 9.77Q458.02 8.43 457.46 7.60L457.46 7.60L457.46 7.60Q456.89 6.78 455.76 6.78L455.76 6.78L455.76 6.78Q454.62 6.78 454.05 7.60L454.05 7.60L454.05 7.60Q453.49 8.43 453.49 9.77L453.49 9.77L453.49 11.79L453.49 11.79Q453.49 13.23 454.05 14.01L454.05 14.01L454.05 14.01Q454.62 14.78 455.76 14.78ZM470.41 5.88L473.24 15.18L473.41 15.18L473.41 5.88L474.59 5.88L474.59 15.68L472.23 15.68L469.41 6.38L469.24 6.38L469.24 15.68L468.06 15.68L468.06 5.88L470.41 5.88Z"></path>
  </g>
</svg>