<svg data-v-fde0c5aa="" xmlns="http://www.w3.org/2000/svg" viewBox="0 0 300 300" class="font"><!----><defs data-v-fde0c5aa=""><!----></defs><rect data-v-fde0c5aa="" fill="#5B39CF" x="0" y="0" width="300px" height="300px" class="logo-background-square"></rect><defs data-v-fde0c5aa=""><!----></defs><g data-v-fde0c5aa="" id="204232fb-b6a5-4e96-ad65-f890ed6f56c7" fill="#FFFFFF" transform="matrix(2.662793423946011,0,0,2.662793423946011,40.55918664124874,113.16025287812943)"><path d="M5.88 8.61L5.88 8.61L5.00 9.39L4.82 9.34L4.82 9.34Q4.42 7.78 3.11 7.78L3.11 7.78L3.11 7.78Q2.45 7.78 2.00 8.26L2.00 8.26L2.00 8.26Q1.55 8.74 1.55 9.43L1.55 9.43L1.55 9.43Q1.55 9.82 1.73 10.17L1.73 10.17L1.73 10.17Q1.90 10.51 2.23 10.78L2.23 10.78L2.23 10.78Q2.55 11.05 2.89 11.24L2.89 11.24L2.89 11.24Q3.23 11.44 3.70 11.64L3.70 11.64L3.70 11.64Q4.83 12.13 5.37 12.74L5.37 12.74L5.37 12.74Q5.92 13.34 5.92 14.16L5.92 14.16L5.92 14.16Q5.92 14.83 5.57 15.43L5.57 15.43L5.57 15.43Q5.22 16.02 4.67 16.43L4.67 16.43L4.67 16.43Q4.12 16.83 3.45 17.07L3.45 17.07L3.45 17.07Q2.77 17.30 2.10 17.30L2.10 17.30L2.10 17.30Q1.32 17.30 0.69 16.95L0.69 16.95L0.69 16.95Q0.06 16.60-0.21 15.87L-0.21 15.87L0.59 14.95L0.83 14.96L0.83 14.96Q1.34 16.66 2.69 16.66L2.69 16.66L2.69 16.66Q3.51 16.66 4.10 16.06L4.10 16.06L4.10 16.06Q4.69 15.47 4.69 14.59L4.69 14.59L4.69 14.59Q4.69 14.04 4.18 13.51L4.18 13.51L4.18 13.51Q3.68 12.99 2.99 12.69L2.99 12.69L2.99 12.69Q2.32 12.41 1.87 12.14L1.87 12.14L1.87 12.14Q1.42 11.88 1.08 11.55L1.08 11.55L1.08 11.55Q0.75 11.22 0.59 10.82L0.59 10.82L0.59 10.82Q0.43 10.42 0.43 9.92L0.43 9.92L0.43 9.92Q0.43 9.28 0.68 8.77L0.68 8.77L0.68 8.77Q0.93 8.25 1.35 7.93L1.35 7.93L1.35 7.93Q1.76 7.61 2.29 7.43L2.29 7.43L2.29 7.43Q2.82 7.26 3.40 7.26L3.40 7.26L3.40 7.26Q3.83 7.26 4.15 7.31L4.15 7.31L4.15 7.31Q4.46 7.36 4.79 7.49L4.79 7.49L4.79 7.49Q5.11 7.63 5.38 7.91L5.38 7.91L5.38 7.91Q5.65 8.18 5.88 8.61ZM11.92 17.23L11.79 17.14L11.79 17.14Q11.79 17.06 11.85 15.66L11.85 15.66L11.85 15.66Q11.92 14.26 11.92 13.32L11.92 13.32L11.92 13.32Q11.92 12.39 11.68 11.94L11.68 11.94L11.68 11.94Q11.43 11.49 10.77 11.49L10.77 11.49L10.77 11.49Q10.48 11.49 10.08 11.64L10.08 11.64L10.08 11.64Q9.68 11.79 9.47 11.90L9.47 11.90L9.47 11.90Q9.27 12.02 9.14 12.11L9.14 12.11L9.14 12.11Q9.06 13.95 9.06 15.14L9.06 15.14L9.06 15.14Q9.06 16.17 9.10 16.89L9.10 16.89L8.16 17.23L7.96 17.12L7.96 17.12Q7.97 16.54 8.02 15.25L8.02 15.25L8.02 15.25Q8.06 13.95 8.06 13.27L8.06 13.27L8.06 13.27Q8.06 12.15 7.97 11.81L7.97 11.81L7.97 11.81Q7.85 11.32 7.50 11.32L7.50 11.32L7.50 11.32Q7.16 11.32 6.45 11.73L6.45 11.73L6.28 11.46L6.28 11.46Q7.45 10.52 8.20 10.49L8.20 10.49L8.20 10.49Q9.06 10.49 9.06 11.53L9.06 11.53L9.18 11.61L9.18 11.61Q9.28 11.57 9.61 11.38L9.61 11.38L9.61 11.38Q9.95 11.18 10.11 11.10L10.11 11.10L10.11 11.10Q10.28 11.02 10.57 10.89L10.57 10.89L10.57 10.89Q10.86 10.77 11.10 10.72L11.10 10.72L11.10 10.72Q11.35 10.66 11.59 10.66L11.59 10.66L11.59 10.66Q11.98 10.66 12.31 10.86L12.31 10.86L12.31 10.86Q12.65 11.05 12.84 11.39L12.84 11.39L13.07 11.42L13.07 11.42Q13.99 10.94 14.49 10.79L14.49 10.79L14.49 10.79Q14.94 10.65 15.31 10.65L15.31 10.65L15.31 10.65Q16.04 10.65 16.42 11.03L16.42 11.03L16.42 11.03Q16.50 11.11 16.55 11.21L16.55 11.21L16.55 11.21Q16.60 11.31 16.64 11.47L16.64 11.47L16.64 11.47Q16.67 11.62 16.68 11.76L16.68 11.76L16.68 11.76Q16.70 11.89 16.70 12.13L16.70 12.13L16.70 12.13Q16.71 12.37 16.71 12.55L16.71 12.55L16.71 12.55Q16.71 12.73 16.70 13.06L16.70 13.06L16.70 13.06Q16.70 13.39 16.70 13.62L16.70 13.62L16.70 15.45L16.70 15.45Q16.70 16.37 17.41 16.37L17.41 16.37L17.41 16.37Q17.75 16.37 18.49 15.80L18.49 15.80L18.68 15.80L18.79 16.10L18.79 16.10Q18.38 16.47 18.09 16.69L18.09 16.69L18.09 16.69Q17.81 16.92 17.37 17.13L17.37 17.13L17.37 17.13Q16.93 17.34 16.54 17.34L16.54 17.34L16.54 17.34Q16.08 17.34 15.84 17.02L15.84 17.02L15.84 17.02Q15.59 16.70 15.59 16.26L15.59 16.26L15.59 16.26Q15.59 16.25 15.63 15.10L15.63 15.10L15.63 15.10Q15.66 13.95 15.66 13.32L15.66 13.32L15.66 13.32Q15.66 12.41 15.39 11.95L15.39 11.95L15.39 11.95Q15.12 11.49 14.47 11.49L14.47 11.49L14.47 11.49Q13.72 11.49 12.91 11.96L12.91 11.96L12.91 11.96Q12.88 13.25 12.88 13.90L12.88 13.90L12.88 13.90Q12.88 15.39 12.96 16.84L12.96 16.84L11.92 17.23ZM23.65 11.05L23.65 11.05L24.39 10.62L24.47 10.69L24.47 10.69Q24.38 12.36 24.38 13.75L24.38 13.75L24.38 13.75Q24.38 13.88 24.37 14.16L24.37 14.16L24.37 14.16Q24.36 14.44 24.35 14.65L24.35 14.65L24.35 14.65Q24.35 14.86 24.35 15.14L24.35 15.14L24.35 15.14Q24.36 15.42 24.39 15.61L24.39 15.61L24.39 15.61Q24.42 15.81 24.48 15.99L24.48 15.99L24.48 15.99Q24.54 16.17 24.65 16.27L24.65 16.27L24.65 16.27Q24.77 16.37 24.92 16.37L24.92 16.37L24.92 16.37Q25.16 16.37 25.83 16.11L25.83 16.11L25.94 16.45L25.94 16.45Q25.89 16.47 25.74 16.56L25.74 16.56L25.74 16.56Q25.59 16.65 25.54 16.69L25.54 16.69L25.54 16.69Q25.48 16.72 25.33 16.80L25.33 16.80L25.33 16.80Q25.19 16.88 25.12 16.93L25.12 16.93L25.12 16.93Q25.04 16.97 24.91 17.03L24.91 17.03L24.91 17.03Q24.79 17.10 24.70 17.13L24.70 17.13L24.70 17.13Q24.62 17.16 24.51 17.20L24.51 17.20L24.51 17.20Q24.41 17.23 24.33 17.25L24.33 17.25L24.33 17.25Q24.25 17.26 24.17 17.26L24.17 17.26L24.17 17.26Q23.81 17.26 23.63 17.05L23.63 17.05L23.63 17.05Q23.44 16.83 23.37 16.43L23.37 16.43L23.16 16.38L23.16 16.38Q21.83 17.26 20.88 17.26L20.88 17.26L20.88 17.26Q20.32 17.26 19.91 17.01L19.91 17.01L19.91 17.01Q19.49 16.76 19.26 16.34L19.26 16.34L19.26 16.34Q19.04 15.93 18.93 15.47L18.93 15.47L18.93 15.47Q18.82 15.00 18.82 14.50L18.82 14.50L18.82 14.50Q18.82 13.89 18.94 13.33L18.94 13.33L18.94 13.33Q19.05 12.77 19.31 12.26L19.31 12.26L19.31 12.26Q19.57 11.76 19.95 11.38L19.95 11.38L19.95 11.38Q20.33 11.01 20.90 10.79L20.90 10.79L20.90 10.79Q21.46 10.57 22.16 10.57L22.16 10.57L22.16 10.57Q22.51 10.57 22.92 10.69L22.92 10.69L22.92 10.69Q23.32 10.82 23.65 11.05ZM23.34 15.70L23.34 15.70L23.34 12.48L23.34 12.48Q23.34 12.24 23.34 12.11L23.34 12.11L23.34 12.11Q23.33 11.98 23.28 11.81L23.28 11.81L23.28 11.81Q23.22 11.63 23.12 11.52L23.12 11.52L23.12 11.52Q22.67 11.05 22.17 11.05L22.17 11.05L22.17 11.05Q21.39 11.05 20.84 11.59L20.84 11.59L20.84 11.59Q20.55 11.87 20.33 12.49L20.33 12.49L20.33 12.49Q20.10 13.12 20.08 14.08L20.08 14.08L20.08 14.08Q20.06 15.12 20.47 15.76L20.47 15.76L20.47 15.76Q20.84 16.33 21.86 16.33L21.86 16.33L21.86 16.33Q22.53 16.33 23.34 15.70ZM30.77 11.66L30.02 12.35L29.85 12.27L29.85 12.27Q29.78 11.93 29.61 11.70L29.61 11.70L29.61 11.70Q29.43 11.46 29.11 11.46L29.11 11.46L29.11 11.46Q28.72 11.46 28.44 11.72L28.44 11.72L28.44 11.72Q28.17 11.98 28.03 12.33L28.03 12.33L28.03 12.33Q27.94 12.54 27.91 12.91L27.91 12.91L27.91 12.91Q27.89 13.28 27.91 13.94L27.91 13.94L27.91 13.94Q27.93 14.59 27.93 14.71L27.93 14.71L27.93 14.71Q27.93 15.77 27.97 16.84L27.97 16.84L26.99 17.13L26.78 17.01L26.78 17.01Q26.95 15.05 26.95 13.69L26.95 13.69L26.95 13.69Q26.95 13.62 26.95 13.50L26.95 13.50L26.95 13.50Q26.95 13.23 26.95 13.10L26.95 13.10L26.95 13.10Q26.95 12.97 26.94 12.73L26.94 12.73L26.94 12.73Q26.93 12.48 26.92 12.35L26.92 12.35L26.92 12.35Q26.90 12.21 26.88 12.02L26.88 12.02L26.88 12.02Q26.85 11.83 26.80 11.73L26.80 11.73L26.80 11.73Q26.76 11.63 26.69 11.52L26.69 11.52L26.69 11.52Q26.63 11.41 26.54 11.36L26.54 11.36L26.54 11.36Q26.46 11.32 26.35 11.32L26.35 11.32L26.35 11.32Q26.02 11.32 25.25 11.76L25.25 11.76L25.09 11.52L25.09 11.52Q25.51 11.18 25.72 11.03L25.72 11.03L25.72 11.03Q25.94 10.87 26.32 10.67L26.32 10.67L26.32 10.67Q26.71 10.47 26.97 10.47L26.97 10.47L26.97 10.47Q27.84 10.47 27.99 11.48L27.99 11.48L28.12 11.53L28.12 11.53Q29.13 10.55 29.67 10.55L29.67 10.55L29.67 10.55Q30.67 10.55 30.77 11.66L30.77 11.66ZM31.73 8.94L31.73 8.94L32.91 8.54L33.00 8.61L33.00 8.61Q32.87 10.23 32.85 10.93L32.85 10.93L32.94 11.00L34.73 11.00L34.79 11.05L34.69 11.42L34.60 11.49L32.94 11.49L32.85 11.57L32.85 14.22L32.85 14.22Q32.85 14.65 32.89 14.97L32.89 14.97L32.89 14.97Q32.92 15.30 33.02 15.63L33.02 15.63L33.02 15.63Q33.11 15.96 33.32 16.14L33.32 16.14L33.32 16.14Q33.53 16.32 33.84 16.32L33.84 16.32L33.84 16.32Q34.22 16.32 35.12 15.74L35.12 15.74L35.29 15.77L35.38 15.98L35.38 15.98Q34.07 17.21 33.09 17.21L33.09 17.21L33.09 17.21Q32.41 17.21 32.08 16.78L32.08 16.78L32.08 16.78Q31.86 16.50 31.81 16.09L31.81 16.09L31.81 16.09Q31.76 15.67 31.76 14.25L31.76 14.25L31.76 11.59L31.68 11.49L30.11 11.49L30.04 11.42L30.13 11.08L30.22 11.00L31.68 11.00L31.76 10.92L31.76 10.92Q31.76 9.30 31.73 8.94ZM42.71 11.72L42.63 12.39L42.63 12.39Q41.54 12.30 40.97 12.30L40.97 12.30L40.97 12.30Q40.87 12.30 40.70 12.30L40.70 12.30L40.70 12.30Q40.53 12.30 40.42 12.30L40.42 12.30L40.42 12.30Q40.30 12.30 40.15 12.30L40.15 12.30L40.15 12.30Q39.99 12.30 39.88 12.31L39.88 12.31L39.88 12.31Q39.78 12.31 39.66 12.32L39.66 12.32L39.66 12.32Q39.53 12.33 39.45 12.34L39.45 12.34L39.45 12.34Q39.38 12.36 39.31 12.38L39.31 12.38L39.31 12.38Q39.24 12.40 39.20 12.43L39.20 12.43L39.20 12.43Q39.17 12.47 39.17 12.51L39.17 12.51L39.17 14.46L39.17 14.46Q39.17 15.65 39.38 16.02L39.38 16.02L39.38 16.02Q39.53 16.29 39.81 16.38L39.81 16.38L39.81 16.38Q40.08 16.47 40.72 16.47L40.72 16.47L40.72 16.47Q41.71 16.47 44.00 16.28L44.00 16.28L44.07 16.34L43.89 17.09L38.46 17.09L38.46 17.09Q38.09 16.88 38.09 16.17L38.09 16.17L38.09 9.28L38.09 9.28Q38.09 8.66 37.97 8.38L37.97 8.38L37.97 8.38Q37.83 8.07 36.90 7.94L36.90 7.94L36.89 7.66L36.99 7.55L39.06 7.54L39.06 7.54Q39.60 7.54 40.82 7.50L40.82 7.50L40.82 7.50Q42.04 7.46 42.44 7.46L42.44 7.46L42.44 7.46Q42.91 7.46 43.09 7.47L43.09 7.47L43.06 8.17L43.00 8.27L43.00 8.27Q40.48 8.13 40.08 8.13L40.08 8.13L39.52 8.13L39.52 8.13Q39.18 8.20 39.18 9.19L39.18 9.19L39.18 11.52L39.18 11.52Q39.18 11.56 39.20 11.59L39.20 11.59L39.20 11.59Q39.21 11.62 39.24 11.64L39.24 11.64L39.24 11.64Q39.27 11.66 39.31 11.68L39.31 11.68L39.31 11.68Q39.34 11.69 39.40 11.70L39.40 11.70L39.40 11.70Q39.46 11.71 39.50 11.71L39.50 11.71L39.50 11.71Q39.55 11.72 39.64 11.72L39.64 11.72L39.64 11.72Q39.72 11.72 39.78 11.72L39.78 11.72L39.78 11.72Q39.84 11.72 39.94 11.72L39.94 11.72L39.94 11.72Q40.04 11.72 40.11 11.72L40.11 11.72L40.11 11.72Q41.23 11.72 42.63 11.61L42.63 11.61L42.71 11.72ZM49.14 10.62L49.14 10.62L49.57 11.03L49.57 11.03Q49.62 11.07 49.62 11.08L49.62 11.08L49.62 11.08Q49.62 11.14 49.57 11.16L49.57 11.16L49.57 11.16Q48.47 11.93 47.16 13.47L47.16 13.47L47.16 13.47Q47.40 13.99 47.64 14.43L47.64 14.43L47.64 14.43Q47.88 14.88 48.15 15.30L48.15 15.30L48.15 15.30Q48.42 15.72 48.69 15.97L48.69 15.97L48.69 15.97Q48.96 16.21 49.18 16.21L49.18 16.21L49.18 16.21Q49.55 16.21 50.18 15.67L50.18 15.67L50.29 15.67L50.39 15.94L50.39 15.94Q50.17 16.18 50.07 16.29L50.07 16.29L50.07 16.29Q49.96 16.40 49.73 16.63L49.73 16.63L49.73 16.63Q49.49 16.85 49.34 16.96L49.34 16.96L49.34 16.96Q49.18 17.07 48.98 17.17L48.98 17.17L48.98 17.17Q48.77 17.26 48.60 17.26L48.60 17.26L48.60 17.26Q48.44 17.26 48.29 17.20L48.29 17.20L48.29 17.20Q48.15 17.13 47.98 16.96L47.98 16.96L47.98 16.96Q47.82 16.78 47.69 16.62L47.69 16.62L47.69 16.62Q47.57 16.46 47.38 16.11L47.38 16.11L47.38 16.11Q47.18 15.76 47.06 15.51L47.06 15.51L47.06 15.51Q46.93 15.27 46.67 14.77L46.67 14.77L46.67 14.77Q46.63 14.69 46.61 14.65L46.61 14.65L46.61 14.65Q46.59 14.61 46.55 14.54L46.55 14.54L46.55 14.54Q46.52 14.47 46.49 14.42L46.49 14.42L46.40 14.42L46.40 14.42Q46.01 15.00 45.82 15.31L45.82 15.31L45.82 15.31Q45.64 15.61 45.35 16.15L45.35 16.15L45.35 16.15Q45.06 16.70 44.86 17.20L44.86 17.20L44.65 17.26L44.25 16.91L44.25 16.80L44.25 16.80Q45.01 15.57 46.24 13.97L46.24 13.97L46.24 13.97Q45.62 12.71 45.40 12.36L45.40 12.36L45.40 12.36Q44.82 11.39 44.35 11.39L44.35 11.39L44.35 11.39Q43.98 11.39 43.46 11.74L43.46 11.74L43.26 11.49L43.26 11.49Q44.43 10.60 44.91 10.60L44.91 10.60L44.91 10.60Q45.42 10.60 45.66 10.86L45.66 10.86L45.66 10.86Q45.87 11.09 46.24 11.71L46.24 11.71L46.24 11.71Q46.61 12.33 46.94 12.97L46.94 12.97L47.02 12.99L47.02 12.99Q47.70 12.09 48.97 10.62L48.97 10.62L48.97 10.62Q48.99 10.60 49.05 10.60L49.05 10.60L49.05 10.60Q49.11 10.60 49.14 10.62ZM51.93 19.97L51.93 19.97L50.80 20.41L50.66 20.25L50.66 20.25Q50.74 19.28 50.74 15.77L50.74 15.77L50.74 12.68L50.74 12.68Q50.74 12.13 50.61 11.72L50.61 11.72L50.61 11.72Q50.48 11.32 50.20 11.32L50.20 11.32L50.20 11.32Q49.87 11.32 49.18 11.73L49.18 11.73L48.98 11.46L48.98 11.46Q50.17 10.51 50.89 10.51L50.89 10.51L50.89 10.51Q51.33 10.51 51.54 10.78L51.54 10.78L51.54 10.78Q51.75 11.06 51.80 11.56L51.80 11.56L51.91 11.61L51.91 11.61Q53.20 10.58 54.48 10.58L54.48 10.58L54.48 10.58Q54.89 10.58 55.23 10.73L55.23 10.73L55.23 10.73Q55.56 10.87 55.78 11.10L55.78 11.10L55.78 11.10Q55.99 11.33 56.14 11.65L56.14 11.65L56.14 11.65Q56.28 11.96 56.34 12.27L56.34 12.27L56.34 12.27Q56.40 12.59 56.40 12.92L56.40 12.92L56.40 12.92Q56.40 13.69 56.13 14.46L56.13 14.46L56.13 14.46Q55.86 15.24 55.40 15.86L55.40 15.86L55.40 15.86Q54.93 16.47 54.24 16.86L54.24 16.86L54.24 16.86Q53.55 17.25 52.76 17.25L52.76 17.25L52.76 17.25Q52.38 17.25 51.93 17.13L51.93 17.13L51.80 17.25L51.80 17.25Q51.84 19.12 51.93 19.97ZM51.82 16.08L51.82 16.17L51.82 16.17Q52.39 16.69 53.05 16.69L53.05 16.69L53.05 16.69Q53.55 16.69 53.93 16.51L53.93 16.51L53.93 16.51Q54.31 16.32 54.55 16.04L54.55 16.04L54.55 16.04Q54.79 15.75 54.95 15.36L54.95 15.36L54.95 15.36Q55.10 14.96 55.17 14.57L55.17 14.57L55.17 14.57Q55.23 14.17 55.23 13.75L55.23 13.75L55.23 13.75Q55.23 12.80 54.83 12.12L54.83 12.12L54.83 12.12Q54.43 11.45 53.79 11.45L53.79 11.45L53.79 11.45Q53.27 11.45 52.81 11.65L52.81 11.65L52.81 11.65Q52.36 11.85 51.84 12.26L51.84 12.26L51.84 12.26Q51.84 12.29 51.82 12.88L51.82 12.88L51.82 12.88Q51.80 13.47 51.80 13.56L51.80 13.56L51.80 13.56Q51.80 13.79 51.80 14.06L51.80 14.06L51.80 14.06Q51.80 14.33 51.80 14.58L51.80 14.58L51.80 14.58Q51.80 14.83 51.81 15.07L51.81 15.07L51.81 15.07Q51.81 15.31 51.81 15.50L51.81 15.50L51.81 15.50Q51.82 15.70 51.82 15.85L51.82 15.85L51.82 15.85Q51.82 16.00 51.82 16.08L51.82 16.08ZM59.13 11.55L59.13 11.55L59.13 11.55Q58.75 11.95 58.62 12.41L58.62 12.41L58.62 12.41Q58.49 12.87 58.49 13.45L58.49 13.45L58.49 13.45Q58.49 13.54 58.52 13.70L58.52 13.70L58.57 13.76L61.40 12.64L61.40 12.64Q61.58 12.58 61.58 12.27L61.58 12.27L61.58 12.27Q61.58 11.79 61.22 11.38L61.22 11.38L61.22 11.38Q60.86 10.96 60.31 10.96L60.31 10.96L60.31 10.96Q59.61 10.96 59.13 11.55ZM62.49 12.63L62.49 12.63L58.54 14.33L58.54 14.33Q58.58 14.69 58.69 15.02L58.69 15.02L58.69 15.02Q58.80 15.35 59.01 15.65L59.01 15.65L59.01 15.65Q59.21 15.95 59.56 16.13L59.56 16.13L59.56 16.13Q59.90 16.30 60.35 16.30L60.35 16.30L60.35 16.30Q61.28 16.30 62.50 15.35L62.50 15.35L62.66 15.38L62.84 15.63L62.84 15.63Q61.11 17.26 59.65 17.26L59.65 17.26L59.65 17.26Q59.11 17.26 58.69 17.06L58.69 17.06L58.69 17.06Q58.28 16.86 58.02 16.55L58.02 16.55L58.02 16.55Q57.77 16.23 57.61 15.78L57.61 15.78L57.61 15.78Q57.45 15.33 57.39 14.88L57.39 14.88L57.39 14.88Q57.33 14.44 57.33 13.92L57.33 13.92L57.33 13.92Q57.33 12.48 58.04 11.66L58.04 11.66L58.04 11.66Q58.55 11.05 59.27 10.73L59.27 10.73L59.27 10.73Q60.00 10.40 60.80 10.40L60.80 10.40L60.80 10.40Q61.69 10.40 62.23 10.95L62.23 10.95L62.23 10.95Q62.78 11.50 62.78 12.33L62.78 12.33L62.78 12.33Q62.78 12.41 62.73 12.47L62.73 12.47L62.73 12.47Q62.69 12.53 62.64 12.55L62.64 12.55L62.64 12.55Q62.60 12.58 62.49 12.63ZM65.43 16.84L65.43 16.84L64.44 17.17L64.24 17.08L64.24 17.08Q64.36 13.88 64.36 12.92L64.36 12.92L64.36 12.92Q64.36 12.10 64.26 11.70L64.26 11.70L64.26 11.70Q64.16 11.31 63.84 11.31L63.84 11.31L63.84 11.31Q63.70 11.31 63.52 11.38L63.52 11.38L63.52 11.38Q63.33 11.46 63.19 11.54L63.19 11.54L63.19 11.54Q63.05 11.63 62.79 11.80L62.79 11.80L62.56 11.49L62.56 11.49Q62.97 11.19 63.21 11.03L63.21 11.03L63.21 11.03Q63.44 10.86 63.82 10.68L63.82 10.68L63.82 10.68Q64.20 10.49 64.44 10.49L64.44 10.49L64.44 10.49Q64.93 10.49 65.16 10.75L65.16 10.75L65.16 10.75Q65.39 11.01 65.45 11.45L65.45 11.45L65.56 11.53L65.56 11.53Q66.32 11.07 66.96 10.80L66.96 10.80L66.96 10.80Q67.61 10.52 68.21 10.52L68.21 10.52L68.21 10.52Q68.93 10.52 69.29 10.93L69.29 10.93L69.29 10.93Q69.42 11.09 69.48 11.59L69.48 11.59L69.48 11.59Q69.55 12.09 69.56 12.48L69.56 12.48L69.56 12.48Q69.57 12.86 69.57 13.51L69.57 13.51L69.57 13.51Q69.57 15.17 69.58 15.34L69.58 15.34L69.58 15.34Q69.62 16.00 69.86 16.15L69.86 16.15L69.86 16.15Q69.99 16.25 70.24 16.25L70.24 16.25L70.24 16.25Q70.63 16.25 71.36 15.69L71.36 15.69L71.54 15.69L71.67 15.98L71.67 15.98Q71.13 16.51 70.54 16.87L70.54 16.87L70.54 16.87Q69.94 17.23 69.47 17.23L69.47 17.23L69.47 17.23Q68.46 17.23 68.46 16.00L68.46 16.00L68.53 13.60L68.53 13.60Q68.53 12.48 68.25 11.91L68.25 11.91L68.25 11.91Q67.98 11.35 67.27 11.35L67.27 11.35L67.27 11.35Q66.54 11.35 65.47 12.20L65.47 12.20L65.47 12.20Q65.38 14.38 65.38 15.46L65.38 15.46L65.38 15.46Q65.38 15.86 65.43 16.84ZM75.69 11.73L75.69 11.73L74.92 12.24L74.74 12.15L74.74 12.15Q74.67 11.05 73.83 11.05L73.83 11.05L73.83 11.05Q73.34 11.05 73.01 11.38L73.01 11.38L73.01 11.38Q72.69 11.70 72.69 12.19L72.69 12.19L72.69 12.19Q72.69 12.59 73.05 12.89L73.05 12.89L73.05 12.89Q73.42 13.19 74.23 13.54L74.23 13.54L74.23 13.54Q75.05 13.89 75.44 14.28L75.44 14.28L75.44 14.28Q75.84 14.67 75.84 15.16L75.84 15.16L75.84 15.16Q75.84 15.67 75.60 16.09L75.60 16.09L75.60 16.09Q75.37 16.52 74.98 16.78L74.98 16.78L74.98 16.78Q74.60 17.04 74.14 17.19L74.14 17.19L74.14 17.19Q73.68 17.33 73.21 17.33L73.21 17.33L73.21 17.33Q71.76 17.33 71.15 16.17L71.15 16.17L71.83 15.17L72.03 15.18L72.03 15.18Q72.07 15.85 72.52 16.32L72.52 16.32L72.52 16.32Q72.97 16.80 73.62 16.80L73.62 16.80L73.62 16.80Q74.07 16.80 74.45 16.47L74.45 16.47L74.45 16.47Q74.82 16.15 74.82 15.73L74.82 15.73L74.82 15.73Q74.82 15.48 74.70 15.26L74.70 15.26L74.70 15.26Q74.59 15.05 74.36 14.88L74.36 14.88L74.36 14.88Q74.14 14.71 73.93 14.60L73.93 14.60L73.93 14.60Q73.73 14.49 73.43 14.36L73.43 14.36L73.43 14.36Q73.06 14.21 72.78 14.05L72.78 14.05L72.78 14.05Q72.50 13.90 72.23 13.68L72.23 13.68L72.23 13.68Q71.97 13.46 71.83 13.18L71.83 13.18L71.83 13.18Q71.68 12.89 71.68 12.56L71.68 12.56L71.68 12.56Q71.68 11.96 72.05 11.49L72.05 11.49L72.05 11.49Q72.41 11.03 72.96 10.80L72.96 10.80L72.96 10.80Q73.51 10.57 74.10 10.57L74.10 10.57L74.10 10.57Q74.72 10.57 75.19 10.86L75.19 10.86L75.19 10.86Q75.66 11.14 75.69 11.73ZM78.70 11.55L78.70 11.55L78.70 11.55Q78.32 11.95 78.19 12.41L78.19 12.41L78.19 12.41Q78.05 12.87 78.05 13.45L78.05 13.45L78.05 13.45Q78.05 13.54 78.08 13.70L78.08 13.70L78.13 13.76L80.96 12.64L80.96 12.64Q81.14 12.58 81.14 12.27L81.14 12.27L81.14 12.27Q81.14 11.79 80.78 11.38L80.78 11.38L80.78 11.38Q80.42 10.96 79.87 10.96L79.87 10.96L79.87 10.96Q79.17 10.96 78.70 11.55ZM82.05 12.63L82.05 12.63L78.11 14.33L78.11 14.33Q78.14 14.69 78.25 15.02L78.25 15.02L78.25 15.02Q78.37 15.35 78.57 15.65L78.57 15.65L78.57 15.65Q78.78 15.95 79.12 16.13L79.12 16.13L79.12 16.13Q79.47 16.30 79.91 16.30L79.91 16.30L79.91 16.30Q80.85 16.30 82.07 15.35L82.07 15.35L82.22 15.38L82.41 15.63L82.41 15.63Q80.67 17.26 79.21 17.26L79.21 17.26L79.21 17.26Q78.67 17.26 78.26 17.06L78.26 17.06L78.26 17.06Q77.84 16.86 77.59 16.55L77.59 16.55L77.59 16.55Q77.33 16.23 77.17 15.78L77.17 15.78L77.17 15.78Q77.01 15.33 76.95 14.88L76.95 14.88L76.95 14.88Q76.89 14.44 76.89 13.92L76.89 13.92L76.89 13.92Q76.89 12.48 77.60 11.66L77.60 11.66L77.60 11.66Q78.11 11.05 78.84 10.73L78.84 10.73L78.84 10.73Q79.56 10.40 80.36 10.40L80.36 10.40L80.36 10.40Q81.25 10.40 81.80 10.95L81.80 10.95L81.80 10.95Q82.35 11.50 82.35 12.33L82.35 12.33L82.35 12.33Q82.35 12.41 82.30 12.47L82.30 12.47L82.30 12.47Q82.25 12.53 82.21 12.55L82.21 12.55L82.21 12.55Q82.16 12.58 82.05 12.63Z"></path></g><!----><!----></svg>